<?xml version="1.0" encoding="UTF-8"?><svg xmlns="http://www.w3.org/2000/svg" viewBox="0 0 212.33 541"><defs><style>.d{fill:none;stroke:#000;stroke-miterlimit:10;stroke-width:10px;}</style></defs><g id="a"/><g id="b"><g id="c"><g><path class="d" d="M108.37,475.66c-1.25-7.28-2.63-15.35-4.35-24.76-4.41-24.05-7.41-41.8-10-64.03-2-17.19-2.86-29.27-3-42.23-.15-13.56-.27-24.39,2-38.14,2.04-12.32,4.7-28.44,14-42.23,11.73-17.39,27.15-20.91,37-23.16,8.71-1.99,27.56-6.29,45,8.17,5.56,4.61,16.04,13.3,18,28.61,3,23.52-16.68,42.75-19,44.95-11.82,11.23-23.94,11.7-38,12.26-18.4,.73-32.92-4.61-50-10.9-8.32-3.06-15.63-5.75-25-10.9-17.04-9.36-37.51-20.61-53-47.68-5.38-9.4-17.51-30.6-17-59.94,.1-5.57,.58-23.74,9-40.87,3.32-6.76,6.84-11.23,13-19.07,3.41-4.34,11.34-14.43,20-21.8,18.57-15.8,37.95-16.91,52-17.71,18.86-1.08,31.45,3.24,37,5.45,11.25,4.47,22.97,9.14,26,21.8,2.55,10.66-2.37,21.48-5,27.24-9.24,20.3-25.82,24.26-27,24.52-13.67,2.96-24.13-5.41-31-10.9,0,0-17.99-14.39-29-47.68-1.9-5.76-3.17-11.47-3.17-11.47-.6-2.72-2.68-12.6-2.83-23.95-.13-10.01,10-72.2,10-91.27"/><polygon points="139.08 440.45 106.11 463.51 66.62 455.78 121.02 534 139.08 440.45"/></g></g></g></svg>